<?xml version="1.0" standalone="no"?><!DOCTYPE svg PUBLIC "-//W3C//DTD SVG 1.1//EN" "http://www.w3.org/Graphics/SVG/1.1/DTD/svg11.dtd"><svg class="icon" width="32px" height="32.00px" viewBox="0 0 1024 1024" version="1.1" xmlns="http://www.w3.org/2000/svg"><path fill="#fe6114" d="M875.9808 497.4592l-355.1744-354.6624a22.5792 22.5792 0 0 0-31.8464 0L133.8368 497.4592a22.528 22.528 0 0 0 15.9232 38.4512 22.528 22.528 0 0 1 22.528 22.528v355.9424a22.528 22.528 0 0 0 22.528 22.528h620.1856a22.528 22.528 0 0 0 22.528-22.528v-355.9424a22.528 22.528 0 0 1 22.528-22.528 22.528 22.528 0 0 0 15.9232-38.4512z m-372.1216 178.0736h2.048a85.8112 85.8112 0 0 1 85.5552 85.5552V875.52H418.304v-114.432a85.8112 85.8112 0 0 1 85.5552-85.5552z"  /></svg>