<?xml version="1.0" standalone="no"?><!DOCTYPE svg PUBLIC "-//W3C//DTD SVG 1.1//EN" "http://www.w3.org/Graphics/SVG/1.1/DTD/svg11.dtd"><svg class="icon" width="32px" height="32.00px" viewBox="0 0 1024 1024" version="1.1" xmlns="http://www.w3.org/2000/svg"><path fill="#dbdbdb" d="M796.5696 411.8528l-32.4608-188.3648a61.44 61.44 0 0 0-50.1248-50.0736l-188.3648-32.512a61.44 61.44 0 0 0-53.8624 17.152l-279.552 279.5008a61.44 61.44 0 0 0 0 87.04l220.8256 220.8768a61.44 61.44 0 0 0 87.04 0L779.4688 465.92a61.44 61.44 0 0 0 17.1008-54.0672z m-219.2896-51.6096a58.2656 58.2656 0 1 1 82.3808 0 58.1632 58.1632 0 0 1-82.3808 0z"  /><path fill="#dbdbdb" d="M779.4688 586.496l-279.552 279.552a61.44 61.44 0 0 1-87.04 0L192.2048 645.12a61.44 61.44 0 0 1 0-87.04l2.4576-2.4064 203.8784 203.8784a81.92 81.92 0 0 0 115.8656 0L788.48 485.6832l8.0896 46.8992a61.44 61.44 0 0 1-17.1008 53.9136z"  /></svg>