<?xml version="1.0" standalone="no"?><!DOCTYPE svg PUBLIC "-//W3C//DTD SVG 1.1//EN" "http://www.w3.org/Graphics/SVG/1.1/DTD/svg11.dtd"><svg class="icon" width="32px" height="32.00px" viewBox="0 0 1024 1024" version="1.1" xmlns="http://www.w3.org/2000/svg"><path fill="#dbdbdb" d="M134.7584 146.0736m92.16 0l165.632 0q92.16 0 92.16 92.16l0 165.632q0 92.16-92.16 92.16l-165.632 0q-92.16 0-92.16-92.16l0-165.632q0-92.16 92.16-92.16Z"  /><path fill="#dbdbdb" d="M134.7584 549.376m92.16 0l165.632 0q92.16 0 92.16 92.16l0 165.632q0 92.16-92.16 92.16l-165.632 0q-92.16 0-92.16-92.16l0-165.632q0-92.16 92.16-92.16Z"  /><path fill="#dbdbdb" d="M896 238.2336v165.632a92.16 92.16 0 0 1-92.16 92.16h-165.376a92.16 92.16 0 0 1-92.16-92.16V238.2336a92.16 92.16 0 0 1 92.16-92.16H803.84a92.16 92.16 0 0 1 92.16 92.16zM865.28 615.936h-288.256a30.72 30.72 0 0 1 0-61.44H865.28a30.72 30.72 0 0 1 0 61.44zM865.28 757.76h-288.256a30.72 30.72 0 0 1 0-61.44H865.28a30.72 30.72 0 0 1 0 61.44zM865.28 899.328h-288.256a30.72 30.72 0 0 1 0-61.44H865.28a30.72 30.72 0 0 1 0 61.44z"  /></svg>