<?xml version="1.0" standalone="no"?><!DOCTYPE svg PUBLIC "-//W3C//DTD SVG 1.1//EN" "http://www.w3.org/Graphics/SVG/1.1/DTD/svg11.dtd"><svg class="icon" width="32px" height="32.00px" viewBox="0 0 1024 1024" version="1.1" xmlns="http://www.w3.org/2000/svg"><path fill="#fe6114" d="M506.88 437.4528h-9.8816c3.2768 0 6.5536 0.3072 9.8816 0.3072s6.6048 0 9.8816-0.3072z"  /><path fill="#fe6114" d="M634.4192 519.6288a221.4912 221.4912 0 0 0 94.208-181.248V147.5072a30.72 30.72 0 0 0-30.72-30.72H506.88a221.5936 221.5936 0 0 0-127.4368 402.8416A388.2496 388.2496 0 0 0 119.4496 885.76a30.72 30.72 0 0 0 30.72 30.72h713.7792a30.72 30.72 0 0 0 30.72-30.72 388.2496 388.2496 0 0 0-260.2496-366.1312zM506.88 437.4528h9.8816c-3.2768 0-6.5536 0.3072-9.8816 0.3072s-6.6048 0-9.8816-0.3072z m28.8256 290.4576V839.68a30.72 30.72 0 0 1-61.44 0v-111.616a117.2992 117.2992 0 0 1-86.1696-113.152 30.72 30.72 0 0 1 61.44 0 55.7056 55.7056 0 0 0 111.36 0 30.72 30.72 0 0 1 61.44 0 117.2992 117.2992 0 0 1-86.4256 112.9984z"  /><path fill="#fe6114" d="M506.88 437.8624c-3.328 0-6.6048 0-9.8816-0.3072h19.7632c-3.072 0.2048-6.3488 0.3072-9.8816 0.3072z"  /></svg>